<svg width="200" height="173" viewBox="0 0 200 173" fill="none" xmlns="http://www.w3.org/2000/svg">
<path d="M0.124513 90.3251L95.3972 172.287L91.4281 172.288L0.124513 94.2766V90.3251Z" fill="url(#paint0_linear_132_1009)"/>
<path d="M0 73.9775L114.194 172.106H110.225L0 77.929V73.9775Z" fill="url(#paint1_linear_132_1009)"/>
<path d="M0.20626 21.0119L176.965 171.994H164.771L0.206238 36.6191L0.20626 21.0119Z" fill="url(#paint2_linear_132_1009)"/>
<path d="M28.4342 86.8557L136.423 172.167H123.449L28.4342 86.8557Z" fill="url(#paint3_linear_132_1009)"/>
<path d="M0.49772 0L200 173H184.543L0.49772 15.3923V0Z" fill="url(#paint4_linear_132_1009)"/>
<path d="M0.20626 40.8564L157.884 172.208H142.66L0.206275 56.248L0.20626 40.8564Z" fill="url(#paint5_linear_132_1009)"/>
<defs>
<linearGradient id="paint0_linear_132_1009" x1="-1.36634" y1="44.344" x2="139.922" y2="168.959" gradientUnits="userSpaceOnUse">
<stop offset="0.23092" stop-color="#1E1B1F"/>
<stop offset="0.463645" stop-color="#12B4CA"/>
<stop offset="0.839262" stop-color="#1C1B1F"/>
</linearGradient>
<linearGradient id="paint1_linear_132_1009" x1="-1.36634" y1="44.344" x2="139.922" y2="168.959" gradientUnits="userSpaceOnUse">
<stop offset="0.23092" stop-color="#1E1B1F"/>
<stop offset="0.463645" stop-color="#12B4CA"/>
<stop offset="0.839262" stop-color="#1C1B1F"/>
</linearGradient>
<linearGradient id="paint2_linear_132_1009" x1="-1.36634" y1="44.344" x2="139.922" y2="168.959" gradientUnits="userSpaceOnUse">
<stop offset="0.23092" stop-color="#1E1B1F"/>
<stop offset="0.463645" stop-color="#12B4CA"/>
<stop offset="0.839262" stop-color="#1C1B1F"/>
</linearGradient>
<linearGradient id="paint3_linear_132_1009" x1="-1.36634" y1="44.344" x2="139.922" y2="168.959" gradientUnits="userSpaceOnUse">
<stop offset="0.23092" stop-color="#1E1B1F"/>
<stop offset="0.463645" stop-color="#12B4CA"/>
<stop offset="0.839262" stop-color="#1C1B1F"/>
</linearGradient>
<linearGradient id="paint4_linear_132_1009" x1="-1.36634" y1="44.344" x2="139.922" y2="168.959" gradientUnits="userSpaceOnUse">
<stop offset="0.23092" stop-color="#1E1B1F"/>
<stop offset="0.463645" stop-color="#12B4CA"/>
<stop offset="0.839262" stop-color="#1C1B1F"/>
</linearGradient>
<linearGradient id="paint5_linear_132_1009" x1="-1.36634" y1="44.344" x2="139.922" y2="168.959" gradientUnits="userSpaceOnUse">
<stop offset="0.23092" stop-color="#1E1B1F"/>
<stop offset="0.463645" stop-color="#12B4CA"/>
<stop offset="0.839262" stop-color="#1C1B1F"/>
</linearGradient>
</defs>
</svg>
