<svg width="141" height="30" viewBox="0 0 141 30" fill="none" xmlns="http://www.w3.org/2000/svg">
<path d="M7.5 20V7.5H12.5V10H15V15H12.5V17.5H10V20H7.5ZM12.5 25V22.5H15V20H17.5V17.5H20V10H17.5V7.5H15V5H12.5V2.5H2.5V25H12.5ZM0 30V0H15V2.5H17.5V5H20V7.5H22.5V22.5H20V25H17.5V27.5H15V30H0Z" fill="#0F8A9B"/>
<path d="M38.2422 25V21.875H30.4297V18.75H36.6797V17.1875H30.4297V14.0625H38.2422V10.9375H27.3047V25H38.2422ZM25.7422 28.125V9.375H39.8047V15.625H38.2422V20.3125H39.8047V28.125H25.7422Z" fill="#0F8A9B"/>
<path d="M52.7686 25V21.875H54.3311V18.75H55.8936V15.625H57.4561V12.5H55.8936V10.9375H54.3311V14.0625H52.7686V17.1875H51.2061V20.3125H49.6436V17.1875H48.0811V14.0625H46.5186V10.9375H44.9561V12.5H43.3936V15.625H44.9561V18.75H46.5186V21.875H48.0811V25H52.7686ZM46.5186 28.125V25H44.9561V21.875H43.3936V18.75H41.8311V10.9375H43.3936V9.375H48.0811V12.5H49.6436V15.625H51.2061V12.5H52.7686V9.375H57.4561V10.9375H59.0186V18.75H57.4561V21.875H55.8936V25H54.3311V28.125H46.5186Z" fill="#0F8A9B"/>
<path d="M64.999 29V25.001H68.998V29H64.999ZM72.9971 29V25.001H76.9961V29H72.9971ZM68.998 25.001V17.0029H72.9971V25.001H68.998ZM61 25.001V5.00098H64.999V25.001H61ZM76.9961 25.001V5.00098H81V25.001H76.9961Z" fill="white"/>
<path d="M97.001 25.001V21.002H89.0029V25.001H97.001ZM85.0039 29V17.0029H97.001V13.0039H101V29H85.0039ZM85.0039 13.0039V9H97.001V13.0039H85.0039Z" fill="white"/>
<path d="M105.004 29V9H121V13.0039H109.003V29H105.004Z" fill="white"/>
<path d="M137.001 17.0029V13.0039H129.003V17.0029H137.001ZM125.004 29V9H141V21.002H129.003V25.001H141V29H125.004Z" fill="white"/>
</svg>
